<svg width="278" height="42" viewBox="0 0 278 42" fill="none" xmlns="http://www.w3.org/2000/svg">
<path d="M248.363 40.9999H244.313L258.731 2.38989H263.159L277.685 40.9999H273.473L269.585 30.3079H252.251L248.363 40.9999ZM260.891 6.11589L253.547 26.7979H268.343L260.999 6.11589H260.891Z" fill="#F4F4F4"/>
<path d="M225.916 41.702C215.44 41.702 208.204 33.44 208.204 21.722C208.204 10.058 215.386 1.68799 225.97 1.68799C234.988 1.68799 240.874 7.46599 241.846 14.702H237.742C236.986 10.382 233.8 5.14399 225.916 5.14399C216.574 5.14399 212.308 13.082 212.308 21.722C212.308 30.362 216.628 38.246 225.916 38.246C234.07 38.246 237.472 32.63 237.904 27.284H242.008C241.09 35.708 235.096 41.702 225.916 41.702Z" fill="#F4F4F4"/>
<path d="M200.881 40.9999H196.939V2.38989H200.881V40.9999Z" fill="#F4F4F4"/>
<path d="M191.009 40.9999H166.223V2.38989H170.165V37.5439H191.009V40.9999Z" fill="#F4F4F4"/>
<path d="M156.956 40.9999H153.014V2.38989H156.956V40.9999Z" fill="#F4F4F4"/>
<path d="M132.536 41.702C123.248 41.702 116.552 36.896 116.012 28.202H120.116C120.656 34.196 124.328 38.246 132.374 38.246C139.502 38.246 141.932 34.844 141.932 30.578C141.986 24.854 137.99 23.882 130.052 22.1C123.734 20.642 117.632 18.698 117.632 11.624C117.632 5.46799 122.546 1.68799 130.484 1.68799C138.854 1.68799 144.146 5.95399 144.74 13.514H140.636C139.988 8.16799 137.018 5.14399 130.484 5.14399C124.814 5.14399 121.736 7.46599 121.736 11.462C121.736 16.646 126.326 17.726 131.996 18.968C139.934 20.696 146.036 22.64 146.036 30.47C146.036 36.734 141.716 41.702 132.536 41.702Z" fill="#F4F4F4"/>
<path d="M84.7878 40.9999H80.7378L95.1558 2.38989H99.5838L114.11 40.9999H109.898L106.01 30.3079H88.6758L84.7878 40.9999ZM97.3158 6.11589L89.9718 26.7979H104.768L97.4238 6.11589H97.3158Z" fill="#F4F4F4"/>
<path d="M65.52 40.9999H49.104V2.38989H64.494C72.108 2.38989 76.698 6.06189 76.698 12.1099C76.698 16.6999 74.052 19.0759 70.596 20.2639V20.3719C74.916 21.1819 78.264 24.3679 78.264 29.9299C78.264 37.2199 73.188 40.9999 65.52 40.9999ZM53.046 18.9679H65.25C70.596 18.9679 72.594 16.3219 72.594 12.4879C72.594 8.54589 70.218 5.84589 65.25 5.84589H53.046V18.9679ZM53.046 37.5439H65.682C71.784 37.5439 74.16 34.4119 74.16 29.9299C74.16 25.3939 71.244 22.4239 66.654 22.4239H53.046V37.5439Z" fill="#F4F4F4"/>
<path d="M17.6631 0.654297C26.2103 4.94145 31.5836 12.5838 31.998 22.3535L32 22.4004V41.0771H24.0234C17.2964 41.0769 11.8366 35.6352 11.8145 28.9082L11.7939 22.4961C11.6269 18.722 10.5814 15.3409 8.77246 12.4414C6.96355 15.3409 5.91701 18.7219 5.75 22.4961V41.1377C3.32284 41.1375 1.35561 39.1703 1.35547 36.7432V22.4004L1.35742 22.3535C1.57613 17.198 3.17542 12.6349 5.89355 8.84473C4.23736 7.20095 2.26151 5.79096 0 4.64258L5.33301 2.70703C6.57309 3.55991 7.72286 4.49683 8.77246 5.51367C10.7459 3.6018 13.0696 1.96981 15.6924 0.654297L16.6777 0.160156L17.6631 0.654297ZM21.7051 8.84473C18.9307 6.09102 14.4248 6.09108 11.6504 8.84473C14.3686 12.635 15.9688 17.1979 16.1875 22.3535L16.1895 22.4004V36.6816H27.6045V22.4961C27.3627 17.0324 25.2795 12.3926 21.7051 8.84473Z" fill="#F4F4F4"/>
</svg>
